<svg xmlns="http://www.w3.org/2000/svg" xmlns:xlink="http://www.w3.org/1999/xlink" width="292" height="292" enable-background="new"><title>Halloween Bright Full Moon</title><defs><linearGradient id="i"><stop offset="0" stop-color="#fff" stop-opacity="0"/><stop offset=".479" stop-color="#373737" stop-opacity=".161"/><stop offset="1" stop-opacity=".4"/></linearGradient><linearGradient id="g"><stop offset="0" stop-color="#fff" stop-opacity=".8"/><stop offset=".574" stop-color="#fff" stop-opacity=".502"/><stop offset="1" stop-opacity="0"/></linearGradient><linearGradient id="h"><stop offset="0"/><stop offset=".49" stop-opacity=".698"/><stop offset="1" stop-opacity="0"/></linearGradient><linearGradient><stop offset="0" stop-color="#fff" stop-opacity=".698"/><stop offset=".577" stop-color="#b5b5b5" stop-opacity=".522"/><stop offset="1" stop-opacity="0"/></linearGradient><linearGradient id="c"><stop offset="0" stop-color="#fff"/><stop offset="1" stop-color="#d8d8d8" stop-opacity="0"/></linearGradient><linearGradient id="b"><stop offset="0" stop-opacity=".949"/><stop offset=".322" stop-color="#181818" stop-opacity=".698"/><stop offset="1" stop-color="#fff" stop-opacity="0"/></linearGradient><linearGradient id="a"><stop offset="0" stop-color="#1e1e1e"/><stop offset=".785" stop-color="#7b7b7b" stop-opacity=".498"/><stop offset="1" stop-color="#d8d8d8" stop-opacity="0"/></linearGradient><radialGradient xlink:href="#a" cx="-7.011" cy="75.218" fx="-7.011" fy="75.218" r="145.599" gradientTransform="matrix(0 2.084 1.945 0 112.518 53.191)" gradientUnits="userSpaceOnUse"/><linearGradient xlink:href="#b" x1="226.624" y1="25.539" x2=".624" y2="290.696" gradientUnits="userSpaceOnUse" gradientTransform="matrix(1.007 0 0 1.007 -1.092 -1.095)"/><radialGradient xlink:href="#c" cx="144.75" cy="240.142" fx="144.75" fy="240.142" r="145.599" gradientTransform="matrix(1.162 -.797 .99 1.444 -235.096 5.644)" gradientUnits="userSpaceOnUse"/><linearGradient xlink:href="#d" x1="226.624" y1="25.539" x2=".624" y2="290.696" gradientUnits="userSpaceOnUse" gradientTransform="matrix(1.007 0 0 1.007 -1.092 -1.095)"/><linearGradient id="d"><stop offset="0" stop-opacity=".949"/><stop offset=".322" stop-color="#181818" stop-opacity=".698"/><stop offset="1" stop-color="#fff" stop-opacity="0"/></linearGradient><radialGradient xlink:href="#e" cx="144.75" cy="240.142" fx="144.75" fy="240.142" r="145.599" gradientTransform="matrix(1.162 -.797 .99 1.444 -235.096 5.644)" gradientUnits="userSpaceOnUse"/><linearGradient id="e"><stop offset="0" stop-color="#fff"/><stop offset="1" stop-color="#d8d8d8" stop-opacity="0"/></linearGradient><radialGradient xlink:href="#f" cx="99.727" cy="210.8" fx="99.727" fy="210.8" r="146.001" gradientTransform="matrix(1.24 .002 -.002 1.35 -26.227 -69.681)" gradientUnits="userSpaceOnUse"/><linearGradient id="f"><stop offset="0" stop-color="#fff" stop-opacity=".698"/><stop offset=".577" stop-color="#b5b5b5" stop-opacity=".522"/><stop offset="1" stop-opacity="0"/></linearGradient><radialGradient r="146.001" fy="166.908" fx="140.454" cy="166.908" cx="140.454" gradientTransform="matrix(1.418 -.192 .189 1.398 -84.744 -61.269)" gradientUnits="userSpaceOnUse" id="n" xlink:href="#g"/><radialGradient xlink:href="#h" cx="182.625" cy="79.464" fx="182.625" fy="79.464" r="146.001" gradientTransform="matrix(-1.562 .077 -.062 -1.259 518.136 110.988)" gradientUnits="userSpaceOnUse"/><radialGradient xlink:href="#i" id="m" cx="145.999" cy="145.151" fx="145.999" fy="145.151" r="146.001" gradientTransform="matrix(1 0 0 .994 0 .845)" gradientUnits="userSpaceOnUse"/><filter id="j"><feGaussianBlur stdDeviation="1.45"/></filter><filter id="l"><feGaussianBlur stdDeviation="1.227"/></filter><filter id="k"><feGaussianBlur stdDeviation="1.308"/></filter></defs><g enable-background="new"><path d="M0 146C-.36 69.188 62.175 0 146 0c87.825 0 146.54 78.27 146 146-.573 71.965-59.348 140.297-136.01 144.112C63.2 294.73.338 216.79 0 146z" fill="#bebebe"/><path d="M121.85 288.517c-8.705 1.02-10.157-5.812-14.103-3.482-2.856-3.476-21.526-5.485-14.582-7.718 8.112 1.892-.35-6.965-4.34-.317.115-1.048 2.76-12.387.425-5.95-5.765 2.84-10.344-1.772-16.005-2.05-5.387-4.136.857-7.218 1.723-4.158-.995-4.93-11.132-5.365-7.69.036 1.466 4.145-9.065-3.947-7.426-5.286 2.988.915 9.043 5.785 3.95-1.136-3.032-2.388-14.272-3.504-4.266-3.455 4.977.1 15.823 10.745 15.464 4.31-8.745-2.43-8.233-8.063-1.29-7.68-4.144 4.068 2.92 7.006 4.652 6.227 3.758-2.196 9.264-2.802 10.45-3.854.203-6.037-6.814-4.965-10.885-6.795-3.518-2.77-9.91-5.253-14.684-7.208-4.32-.757-10.77 2.32-12.343-3.39-4.58-1.578-4.56-2.824-8.18-3.218-3.8-7.18 1.344 6.28-1.518 4.608-6.018.34 2.083 7.767-5.285 1.194 4.45-1.043-2.494-5.793-2.827-8.418-7.702-6.697 8.493 3.11 2.586-1.448-5.16-2.428-3.214-9.088 1.597-4.328 7.09 7.08 6.462-5.637.373-3.92-7.086 1.582-4.588-8.12-7.777-4.556 3.156 3.897-3.785 7.45-1.858.96 2.54-2.106.007-11.535-3.012-7.664 4.33 6.26-1.224 10.622-3.927 3.206-4.64-7.222-.91-10.223 2.687-7.634-5.786-3.303-6.15-6.47-7.967-14.796-1.337-7.932-6.157-10.4-6.84-7.596 2.04-8.53-5.757-7.618-6.555-15.296-1.332-8.71-2.438-17.8-2.356-26.648 1.9-26.946 9.58-53.73 25.117-76.053 1.818-1.226 4.422 2.022 7.898-4.638 5.64-3.743 8.78-10.84 16.022-12.94-1.445-1.655.303-6.162 3.92-5.405 1.95-7.45 12.11-6.617 16-9.02 3.646-1.95 6.01-7.715 13.228-7.985C90.72 23.468 97.42 21.63 101.5 17c1.993-7.168 6.52-.543 9.73-.534.817-1.865-2.066-6.086 2.356-9.103 2.085-3.96 14.612-4.987 19.81-3.45 1.6 2.447 7.11-5.94 7.604-.156-7.145 1.128-6.226 6.135.765 3.624 6.67 4.173 2.428-.39 9.374 2.247 4.988 1.36 9.338-3.145 13.37.18 3.33-1.63-6.922-4.796-10.21-3.003-4.61-1.278 7.903-3.49-.903-3.367-1.655 1.21-8.57-4.23-2.62-2.255 10.525.39 21.17-.044 31.223 3.635 12.438 2.493 23.924 8.186 35.203 13.757 21.325 12.354 40.062 29.394 52.895 50.515 10.17 17.008 17.336 35.866 20.66 55.43 1.472 13.193.24 26.674.646 39.98-3.6 18.425-8.654 36.744-18.33 52.967-4.67 9.453-11.643 17.64-18.266 25.757-7.116 7.6-15.257 13.964-22.997 20.82-3.077-.74-12.474 8.617-6.81.724 6.79-6.462-7.46-.135-3.564 5.104-4.865 3.228-.604-8.303 1.484-10.322-2.46-.31-6.778 8.358-11.522 2.805-4.75 2.24-4.292-1.654-.956-5.224-5.16-7.723 5.932 3.163 4.558-4.06-4.924-5.612-5.63 2.998-10.253 2.294-5.15 1.087-14.277-2.276-7.28-3.805 1.364 2.862 3.107-2.714 4.346-5.56-3.673 5.532-4.84.965-4.622-2.118 3.483 2.886 11.54-4.194 7.687-5.423-5.504 3.126-8.505 4.772-8.496-1.29 1.325-4.405-3.358 1.505.644-4.94-1.334-5.92.56-5.11.094-8.23-5.492 5.578-6.48-1.662-2.34-4 3.902.646 7.357-13.604 6.506-12.008 4.516 3.132 9.823-7.116 7.95-10.348-5.495-2.688 4.4-4.5 4.645-9.6-4.66.328-7.432 1.363-7.884 6.73-3.39 5.836 4.03 4.198-2.996 7.28 1.554 6.454-6.29 2.927-7.543 5.257-1.24 6.11-14.29 15.746-11.867 8.05 7.454 2.99-2.357-3.855 2.98-6.643-3.067-4.525-4.887 6.578-4.255-1.717-3.666-4.305 7.37-7.188 7.18-12.927 5.57-4.226-4.38-2.067-6.886-.073-.818-6.17-3.757.518-4.61 3.5-4.185 4.097 9.582.16 2.248 4.5-2.412 8.736-3.597-.91-8.998.96-4.465 1.577-.2-11.8-6.124-5.135-3.664 3.52-1.98 8.067-5.724 12.81-1.51-1.61-5.496-5.444-4.493.67-1.732 1.714-4.428 5.656-6.296 9.91-3.296 4.144-3.87 6.547-5.59 4.105.282 5.402 7.428 4.633-1.398 3.79-7.054-2.012 6.342 9.842-4.626 2.89-5.807-4.215-7.958-3.467-5.678 0-4.393-4.084-12.247-1.54-4.548 2.85-.177 5.92 3.513 2.085 7.252 2.96 9.324 3.66-4.51 5.38-6.026 4.06 1.67 4.59 7.96 2.942 1 4.95-.018 8.145 4.706-3.055 8.007 2.666-8.863 1.23 2.084 10.422-.022 4.032 1.298-1.276 7.763 9.73 11.242 5.11 1.692 2.665 6.053-4.165 4.425 4.164-7.337 3.737-2.226 4.187 1.166 7.798-1.596 3.617 4.593 7.95-.724 11.962-5.195 1.197-7.084-7.466-10.988-1.838-4.373 4.856-11.518 1.61-17.245 2.505-.997 1.827 13.572 7 2.514 5.778-1.588-5.577-1.858 1.223-5.523-.48zm95.32-104.172c.7-5.26 6.928-2.512 5.01-5.345-4.106-.598-.34-3.026.82-5.118 1.27-11.68-8.203 9.02-8 3.433-3.284-1.3-.246 5.804-2.35 7.217.22 2.978 3.377.833 4.52-.187zm-.493-20.72c2.32-4.754-2.044-6.602-2.915-11.53-3.177 2.807-2.983.257-7.052.048-3.613-1.75-.867-8.084-6.384-5.226-5.367-2.283-7.475-7.107-6.61-8.917-5.546-4.048 6.862-1.768.284-5.298-4.138-6.677-9.977-.042-9.372 5.826-3.818 6.158 1.263 9.764 5.022 5.678 5.09 1.653 3.214 11.414-.842 5.144-1.512-2.476-4.27 4.458-5.594-.054 1.6 6.026-4.337 4.21.886 7.326 1.693 7.864 3.09-1.263 5.808-1.622 6.918.115 6.283-7.994 10.428-7.264 4.472 2.977-4.93 8.644-.182 9.074 1.628.957 4.96 2.834 7.897 7.384 1.84-2.537 8.53 3.562 8.627-.57zM86.26 139.732c2.453-5.043-5.82-8.815-7.62-2.485-5.007 5.228.975 6.89 5.802 5.32 1.623.49 1.17-2.03 1.82-2.835zm79.727-10.232c1.342-5.758-5.967-10.37-9.76-6.135-2.928 4.948 1.658 7.562 2.776 8.737 4.61 3.802 6.19 4.81 6.984-2.602zM206 268c-2.756-2.285-2.38-2.857-5.956-2.56 6.734-2.28-2.878-6.67-2.82-1.535-2.207.218-7.87 4.26-8.94-.253 1.48-1.716 10.553-1.814 7.89-6.182 6.93-.017 9.666 2.123 10.622 10.536 1.342 1.443-1.035 1.287-.796-.006z" fill="#f1f1f1" filter="url(#j)"/><path d="M108.92 244.983c-3.993-2.13 1.42-5.256-1.032-9.956 2.685-.878 6.238-3.697.557-6.522-3.345-2.5-7.67-2.647-11.564-4.045-5.723 2.053 7.103-5.507-1.288-7.482.438-7.256 3.67 5.51 7.04.99 4.56-3.576 4.446 5.425 8.374 5.32 3.78-.56 11.66 9.02 4.884 7.712-5.92 4.995-3.788 8.903 3.146 6.215 5.957-7.126 5.276 6.326.77 5.445-1.457-5.585-6.912-1.87-4.386 2.816.205 2.47-5.742 1.678-6.5-.493zm-20.194-1.34c-3.772-4.736-6.33 3.69-9.726-1.522-3.724-.915-1.276-3.81-5.456-6.3-3.654-1.99-2.517-8.997-1.816-11.74 4.093.01 9.103-3.65 4.353-7.048-6.66-4.37 1.617-7.1 3.92-1.01 3.703 3.144 5.286-1.86.368-1.766 2.03-5.826-4.732-3.228-8.18-3.804-3.018-2.88-13.602-7.577-8.048-.455.776 3.275-3.585 5.618-2.013 1.07-4.934-1.83-4.008 1.86-5.808 3.323 1.213 3.79-5.39 6.155.734 9.327-5.993 6.255-3.866-7.387-8.034-10.196-5.67-6.462-3.38 4.58-2.122 6.915-4.198 1.004-8.418-4.318-10.517-7.91-6.01-1.773-4.29-5.246-6.053-7.728-5.025.694-3.233-7.544-8.354-5.797 3.71-3.366-9.39-9.785-2.48-11.664-3.744-5.72-9.15-11.53-10.493-17.836-1.377-3.467-6.72-7.1-5-13.996-3.224-2.36-.594-7.752-1.124-11.512 2.612-4.067.596-9.016 2.84-13.72 3.02-7.564-.51-5.39-2.848-10.066 2.52-9.4 4.91-18.907 9.482-27.542 5.666-4.5-2.068-5.215 3.65-5.92.078 5.382 2.68.853 3.856 5.285 1.23-6.46 4.32-11.114 9.494-14.156 3.695 3.803-2.104 7.586-.35 12.206-1.686 7.237 2.084 8.51 8 3.92-1.525 7.33 4.145-2.08 3.514-3.682-1.355-.767 2.29-4.834 2.656-8.093 7.493-4.74-1.602-6.43 3.637-14.08 2.3-2.365 6.448-6.452 9.997-5.718 5.893 1.977 5.052-11.12 11.644-6.35 9.944-5.942-7.107 1.064.557-5.035 3.66-4.96 9.237-3.612 14.417-3.162 3.93-4.19 10.435-1.627 15.578-2.635-1.123 4.874 14.152 9.492 2.527 8.354.003 2.474-3.38 6.868-3.18 10.015 9.38 1.218-.965 6.575 6.005 6.084 6.23-1.574 3.378 1.145 1.96 4.828-2.498-.282-8.044 1.217-7.317 5.722 1.625 4.49-8.696 6.976-4.415 10.22 2.85 3.564 7.695 4.738 11.927 4.33 3.67-3.808 5.71 1.677 4.538 4.52-.16 5.027-4.7 6.666-6.045 9.587-2.156 7.34-7.616.62-6.573-2.676-5.022 2.21 2.29 6.66-1.535 10.214-1.296-5.96-6.922 5.14-6.283-3.152-2.49.81-5.25 6.42-5.355-.292-2.42.266.394 10.71-4.613 8.042-3.616-3.4-3.926 7.688-9.642 3.79 1.364-6.5-10.25-1.13-7.435 4.156-6.66-1.923-9.34 2.124-4.658 2.526-8.907 5.572 6.95 3.373-1.906 8.73 2.715 3.07 9.048 6.956 1.763 7.78 2.176 4.84 4.71-1.985 8.737.134-6.94 4.113-4.44 5.903 1.5 1.7 7.388 1.557-2.8 2.777-3.65 5.9-2-1.47-7.593 5-7.095-.758-6.39 1.632-2.76-10.2-9.557-10.305-2.99-2.652-3.15-9.596-9.78-8.754 1.384-3.157-3.863-8.03-7.475-8.934-.44-2.008 8.446-3.228 5.22-7.952.47-7.328-2.616-8.014-4.162-3.244-2.215.406-4.254 5.958-2.714-1.052 1.874-1.997-1.594-7.29-.253-8.578-6.215 6.392-3.476-9.787-6.593-1.528 5.57 6.65-2.64 6.92 2.06 13.152-5.905.104-2.766 11.08-5.135 15.293-3.206 4.772 8.26 4.288 7.492 1.524-.114-3.292 7.98-1.584 9.146 1.554 4.118 2.466 1.286 9.307 7.433 5.804-1.098 6.828-5.728-.17-4.668 4.29-.062 5.76 4.565-2.64 4.582 3.207-5.026.956 3.902 7.446-2.457 7.538-3.378-.276 3.63 2.83-2.893 3.926 9.883-1.532-5.59 8.132 4.323 4.267 3.135 1.272 7.597 3.875 10.677 4.038 3.21 9.945 4.566-3.254 3.455-7.836 1.888-1.823 5.24-1.155 8.407-2.12 4.258 3.045 12.596-2.545 8.453 6.83-7.932 3.17-4.992 3.812.5 3.538.358 1.99 9.29 5.786 8.685 1.597-2.227-1.33-3.392-3.82-7.6-4.37.625-5.723 3.555-.512 6.537-.885-2.448-8.48 1.326 4.834 5.313 1.33 6.924-.486-2.11-11.135 7.662-3.03 5.534 3.94 2.335 10.13-2.47 8.792-.65 2.39 5.183 13.044 3.497 7 .573-6.797 3.408-4.316 3.753.34 4.69-.148 7.107 6.332 9.43 3.05.842.94 5.174 4.497 7.274 7.063 2.398 6.18 4.718-3.47 3.11-5.228-.69-4.268-6.497-5.72-7.44-9.05 1.796-4.227-6.494-5.317-3.833-11.192-4.782-6.6 5.47-3.28 1.87 1.238 4.267 6.992-1.856-2.847 3.323-1.282 5.34 1.784 5.626 8.9 11.81 6.562 5.753.928-1.18 6.87 3.8 9 3.56 5.614 6.484-3.72 8.13-1.75 5.154 3.936 1.437 10.492 1.114 15.773-.765 4.072 4.935 5.17 1.563 10.377 5.643-4.19 8.983 1.137 8.34 3.67 3.233 2.556 1.04 9.783-3.66 6.838 2.426 5.316-9.375.777-3.96 5.922 6.498 4.406-7.324 6.28-4.67 2.144 1.575-6.4-2.8 3.345-4.893 1.24 2.473 5.553-10.175-1.297-4.402 2.543 1.147 3.82-6.29-1.573-8.564-2.383-5.56-3.133-8.968-9.748-14.97-11.967-.056-5.787 1.643-12.343-3.164-16.832-2.746 3.195-7.965 5.003-5.935 7.854-.492 3.748 5.097 9.15-3.5 10.15-4.136 3.71-1.594 7.005 1.664 10.254 2.938 3.607 13.17 3.585 13.574 7.646-7.804.006-9.172.296-5.275 5.404.842 2.95-.155 11.844-1.75 4.868-6.795-3.966-.376 4.716-1.786 3.6-3.142.234-5.607-.42-8.168-2.302zm-3.474-54.378c.962-6.35-3.225-4.344-1.02-9.265-3.142 1.195-4.223 2.526-7.224 2.987-.657 3.674-2.407 13.77 3.783 12.013 4.648 3.327 5.555-.062 4.486-5.438l-.024-.297zm177.002 41.892c-1.914-2.89 1.12-8.875 3.48-11.874 7.095-3.563 3.495-9.498 7.83-12.684-.18-4.648-8.733-13.412.4-10.068 5.064-.384-3.94-4.825 2.265-4.055 4.985-1.817.272-8.693 1.888-2.477-4.123.89-1.505-7.418.715-8.97 5.637-1.238.433-7.914 3.11-9.03 1.002 2.645-.054 6.185 2.665.165-1.092-3.573-1.974-10.037-1.644-8.916 5.19 2.497.332-4.203 1.577-6.416-1.576-.622-3.85 5.493-3.54-1.823-4.762-.406-2.46-7.612-5.81-11.025-1.976-3.992-7.748 2.206-8.176-1.742-.386 3.916 1.993 9.245-.08 12.3-3.502-4.435-.26 5.498-5.656 1.07-.047-3.213-7.363-8.5-5.278-10.613.36-3.908 3.714-3.282 6.738-6.397.453-7.13-2.57-2.518-4.876-5.636-2.622 1.984-7.84-3.727-6.862 3.203-3.056-3.423-7.257-.133-8.025-6.32 5.156-5.478 3.096 1.53 4.784.843 3.97-5.697-7.46-5.514-9.76-1.448 1.463-5.773 2.38-3.582-4.355-8.173.308-2.737 11.657-2.155 1.653-5.45-6.016 1.072-2.85-5.155-3.14-9.328-2.434 2.47-5.307 1.564-9.61 2.69-4.08 2.77-5.725-2.2-10.328-.82-1.967 2.33-.32 8.39-.906 12.142-1.307 5.887 1.163 7.112 3.166 10.603 1.29 3.66-2.792 6.12 2.22 6.89 4.847-6.924-1.5 2.955 5.03-.245 6.97-3.4 9.837 1.088 14.967 1.03 1.756 1.93.093 7.82 3.002 10.678.647 6.773 8.29 4.855 7.3 12.45-1.55 3.428-4.035 8.078-1.84 9.88-7.22.6 1.987-11.243-3.302-11.93-5.362-.452-5.727 5.187-9.667 1.416-2.006-.91 3.892 5.615-2.215 7.347-3.966.572-2.002-6.12-1.34-8.125-3.067 2.157-5.798.66-8.425-3.367-1.323-4.287-1.376-7.347.79-9.95-.005-1.907 8.08-6.47 1.752-5.337-5.06-3.21-6.152-1.38-8.185 2.352-2.107-.804-5.64-9.226-8.914-4.552-2.41 5.425-4.59-7.873-7.653-5.074 5.07-3.182 3.547-10.152-1.656-10.76-3.674 2.798-7.97-1.067-11.227 1.39-5.278 4.917-3.682-3.305-3.145-6.504-1.04 7.606-2.76 2.232-5.947-.5-6.006-2.123.408 8.454-3.92 1.294 3.177-2.937 4.503-4.677-1.668-7 1.598-4.092-5.312-10.843-6.325-13.68C165.18 94.56 167.438 94.83 168 91c-5.9-2.368 6.228 1.03 3-4.372-3.592 1.692-10.677 3.05-16.45 3.437-.81 4.047 6.963 3.533 8.45 4.916-2.183 1.14-12.84 6.598-4.32 5.93 7.458 4.713-9.06 2.965-3.242 8.118-3.044 1.63 4.762 6.997-1.747 6.986-8.59.353-7.147 2.58-1.87 4.506-.845 3.506-8.87 2.99-7.82-1.128-.863-6.95-2.267 4.114-6.67 1.298-5.876-.33.47-3.915-4.934-3.53-6.307.03-9.198 6.79-13.784 10.21 3.688 1.046 2.25 6.63 6.393 8.784 1.19 2.597 8.804-4.205 5.877 1.846 2.84-3.306 12.508-4.517 10.67 1.968-.803 9.636-4.25 10.022-12.552 8.032-.77-7.746-.703-.75-3.22-1.52-8.587-3.08-6.23 14.45-12.487 14.012-6.06-3.827-10.532.478-8.124 4.508-3.12-4.872-10.63-13.46-13.32-14.366-5.136-1.168-4.31-10.357-2.476-5.624-3.932-1.21 4.982 6.438 6.123 2.826-6.9-2.166.383-4.884-1.267-8.273.49-3.887 9.107-4.64 5.833.437 2.416-3.524 7.548-1.025 6.7-6.58-1.305-1.348-8.877.077-.996-2.42 4.292-6.164-5.127-1.964-4.19-6.242 9.258-4.252-7.168-5.84.013-9.035 4.118-3.848 7.997-3.02 11.41-1.48 3.864-4.908 9.393-.19 8.79-7.438-1.454-7.082-.145.408 2.983-4.106.474-2.69-.808-9.398 3.132-3.505 4.748 3.683 5.484-3.896-.122-4.38 4.917-1.616 5.026-1.547 3.017-6.535 1.784-3.056-4.874-7.538-.167-6.39-.822-1.483-.564-9.086-3.86-9.044-9.3 3.835-5.36-3.877-7.274-6.846-5.17 7.91-7.69-10.035-12.083-2.512-3.736 3.69-3.753-5.437 1.205-3.488 2.97 1.295 4.636-9.806 3.558-2.306 2.862 2.693-.657 6.61 3.687 1.106 2.97 3.558 1.01 3.26 4.95 1.2-.724 2.435.38 8.587 4.175 7.505 4.883-4.072 2.85-7.262 4.025-15.214 2.922-5.804 10.926-4.01 16.424-4.808 4.4-.357 3.137 4.044 8.56-2.54-2.606-1.49-8.68-.332-7.695-4.89-4.413 2.923-1.942-5.443 1.177-5.878 6.028 4.1 5.35.278 10.1-.174-.2 1.808 6.95 9.07 4.852 3.966 2.574-1.26 6.63-3.75 1.634-4.672 2.068-3.24 10.873-5.45 11.006 1.164 4.48.724 12.557 4.146 3.434 3.682-7.412.465 3.91 1.626-1.494 3.355-7.465 2.635 6.647 2.644.083 3.37-2.595-.658-10.11-.978-9.177-4.524-6.95-2.574 1.536 7.436-3.017 7.838 2.383 5.215 9.147.635 11.657 6.32 8.272 2.76.35 4.18 3.648 6.874.92 2.854 5.575-3.09 2.73 4.01 2.323 3.29 2.585 5.454 5.69 7.813 3.6 2.445 3.255-2.596 6.582.26-1.582-3.67-2.194-7.034 2.476-7.065-6.452-4.835.503-9.337 2.996-3.367.197 5.526 10.1-.753 8.558 4.695-.652 5.013 4.176 4.21 4.817 8.744 4.07 2.056 9.91.082 13.913 2.04 4.255 6.85 14.86 4.957 19.972 11.133 3.408-.6 6.798 2.964 10.753-1.427 3.235-3.295 7.944 8.737 5.377.04.098-9.75-12.19-6.942-10.91-16.202.81-6.047 2.427 3.71 5.706 5.024 3.76 1.095 1.913-5.694-2.29-1.8 5.024-4.295 5.016-9.595 1.755-14.815-1.108-5.072-5.312-8.207-8.537-11.955 3.51 3.067 1.485 7.49 4.282 8.207-.416 4.702 5.694 7.384 5.16 10.557-2.85 6.543-1.054-4.513-5.238-3.01-6.336-5.638 1.57 2.712-1.36 5.225-1.407 3.52-6.103 6.326-9.816 4.98-5.78-2.51-13.19-4.41-13.912-10.98-2.887-3.347-8.43-5.546-6.912-10.796-.073-3.46 2.912-1.706 4.184-5.684-.122-4.02.86-2.12 3.988-5.088-6.174-6.58 5.967 4.034 3.22-6.32-2.415-8.854-3.123-2.827-7.922-7.69-3.52-2.802-4.416.384-9.404-2.902-4.746 1.385-5.192-6.665-10.066-5-1.8-7.837 7.516 3.565 6.81-1.525-5.584-6.315 9.508 4.11 12.45 5.425 7.365 1.51-2.033 5.95 4.94 3.086 11.794 9.283 22.96 19.685 32.366 31.342 8.052 11.448 15.116 23.532 19.84 36.77 5.958 16.07 9.193 33.285 9.696 50.375-.38 11.8-1.336 23.552-4.72 34.93-4.233 18.63-12.72 36.084-23.958 51.477l-.633-.39-.536-.333zm11.7-110.455c1.184-3.66 1.298-9.918-4.008-9.244-4.46.57-2.855 6.87-3.36 10.257 2.834 2.9 6.626 7.386 7.368-1.013zM114.25 86.338c-.6-4.693-5.67-1.685-8.09-5.85 2.388-4.443 3.723.53 8.784-1.295 7.474-2.09 8.325 1.682 3.13 6.95-.48 1.923-2.867-.077-3.824.195zm4.254-59.33c-2.865-.617-7.5-2.682-2.504-3.753 2.776-3.2-.26 5.897 4-1.244-2.857-4.193 8.702-6.323 5.184-3.105-3.237 2.39 4.69 1.17 2.314-2.11 5.42-3.496 14.978-4.298 20.012-2.5 1.272 6.447 2.662 8.907-2.928 4.938-5.364.816-3.64 6.465-9.483 4.767-1.724-6.433-9.355-.01-13.1 1.53-1.176.478-2.816 4.336-3.496 1.477z" fill="#8e8e8e" filter="url(#k)"/><path d="M88.636 242.494c-6.964-2.537-5.242-.088-3.636-4.78-3.4-1.592-8.06.102-10.547-3.147-3.416-1.7-1.552-8.335.395-6.954-7.56-1.507-.53-3.315 3.122-5.054 4.215-2.305-7.286-11.158.29-7.94.283 4.318 6.774 4.643 6.95.248-7.09.564-1.547-5.627-3.52-4.79-.97-3.163-6.573.58-9.977-.965-2.028-1.205 8.202-1.826.723-4.796-4.87-4.84.61 7.04-3.9 2.123-5.248-3.362 4.268-9.716-1.706-5.67-1.353-2.59-7.842-1.184-7.39 1.134 4.072.27 6.15 1.155 1.56 2.798 1.638 6.852-2.282 3.093-4.728 6.476-2.62-.85-11.414-6.743-6.3-1.28 4.563 3.163 1.524 6.56-1.254 1.852-2.013-4.054-6.338 2.13-8.542-2.36-4.764 1.623-6.487-6.02-11.503-6.002-4.99-2.193 1.994-5.71.327-9.435-1.16-6.676-4.863.662-2.35 2.04-4.078-2.894-2.435-6.86-6.1-10.614-8.07-10.467 9.537-.485 5.77-5.513-10.154-2.57 4.412-3.803 4.994 3.513-.076 6.773 7.172 3.408 2.744-.695-2.56-2.612 7.43-6.247 1.38-9.486-3.4 5.375-5.71-.615-5.675-.757-5.28.755 3.98-1.817 5.564-1.163 1.378-1.76-2.07-.192-2.016-3.39-6.358 2.667-7.59 1.85-10.216-.89-5.444-1.346 2.773-4.948 3.906-6.078 3.054.084 1.916-3.74-.735-2.542-.736-5.47-6.572 6.002-7.857 7.33-4.92-1.046 3.25-5.18-3.123-4.88-7.55-7.833 1.305-2.272 1.215-3.595-5.72-7.445 5.656-1.45 7.004-6.494 4.5-7.108-.833 3.823 3.496.844-1.32 5.95 5.157.235 3.117 7.496 1.024-2.138 10.73-5.637 7.637.31-3.107 2.73 2.64 5.927-3.174 8.732 3.2 3.26 7.152-1.11 3.905 3.022 1.76 4.466 3.715-2.93 7.154 2.112 1.282 5.195 7.374 7.355 6.36 12.577-3.106 8.622 10.14 3 2.78.53.92-1.892-4.93-5.657-2.078-8.122 6.772-1.14 7.96-2.05 10.208 3.718 6.24 2.027-1.766 10.07 3.41 10.79 6.78.36-3.598 8.964 5.24 3.252.315 2.474 5.905 2.515 4.665 2.493-7.245.84-1.946 5.565 1.362 2.09 3.892-5.738 2.32-2.396 5.34 1.343 1.904 4.016 8.333.174 8.87 5.324 2.73 3.594 4.58 5.488-1.76 4.75-.655 4.557-7.353 9.75.128 10.732 2.102 4.863 5.02 4.7 8.817 5.968 6.552 2.758-8.994 3.504-1.553 6.604 5.69 2.517-3.447 5.755-6.185 3.527.03 2.48 2.995 7.643-2.61 3.664zM265 226.107c2.904-1.995 6.63-6.36 5.14-10.185 2.356-1.08 2.768-4.858 4.86-5.624 1.092-3.21 3.976-6.608 3.133-12.145-3.884-5.948 8.603-3.122 2.908-7.246 2.57-5.442 5.502-11.477 2.9-17.407 4.29 7.502.828-9.236 2.253-11.702-.68-4.83-1.223-8.34 2.226-11.36-6.945 3.033-1.4-5.383-.622-5.38-5.862 1.404-7.212-2.965-.736-1.19-.293 1.66.206-10.047-1.1-5.7-2.37 6.35-6.04-8.584-1.19-8.26.934 8.532 5.527 2.464 2.228.592.12-.836-6.414-5.25-2-5.202 1.92-4.382-3.36-8.425.066-10.088 2.05-3.832-8.557-7.605-6.69-12.576 1.945-3.947-4.807-5.427-3.208-9.834-.683-3.888-5.08-5.735-3.775-10.74-.48-8.49-4.603-3.223-2.858 2.32-5.528-6.464-3.415-3.14-3.3-.38-3.698-1.102-3.97-6.592-3.878-10.154.77-2.95.425-6.688 3.655-3.017-4.714 2.335 1.763 3.9.475.23 5.408 7.366.41-6.23-4.666-4.92 2.824-6.968-7.585-11.95-10.428-18.06-2.795-6.545-7.005-6.656-11.086-11.737-9.286-10.65 6.167 3.557 9.648 7.16 8.334 7.127 14.454 16.385 20.72 25.254 5.326 11.9 13.018 22.888 15.875 35.743 3.392 12.96 6.754 26.147 5.832 39.643.023 9.298.673 18.66-2.13 27.668-3.472 19.706-11.73 38.342-22.397 55.19-.662.03-1.842.11-1.855-.893zm-139.84-2.682c-3.598-1.447-3.47-3.47-4.807-5.9-.917-2.562-1.346-7.76 3.366-3.318 3.555.91 7.925-4.557 1.07-4.543-5.875-.282-4.003-5.027-3.264-9.118 5.798-4.667 8.48-1.785 11.636 2.07 3.35-.062 1.534-8.8-2.553-6.616-1.755-4.268-8.1-.71-7.49-6.337 4.28-4.88-7.656-4.036-.72-5.947 5.317-1.793-4.483-6.07-3.054-4.908-.372 5.1-6.62-2.034-4.56-4.81.007-9.303 7.615 5.663 7.648.69-1.53-4.058 5.5 1.788 3.51 4.55 6.39 5.38-5.955-.39 2.158 5.556-.082 1.17-2.305 8.087 2.746 5.088 3.366-.92 9.14-.45 6.33 4.405.324 4.047 1.765 7.35 2.252 11.31 2.704 2.16 4.098 3.053 7.045 5.403 3.46 1.316-7.19 6.192-8.72 9-4.627-1.77-6.773 3.473-9.943 4.54-.884-.37-1.768-.743-2.653-1.115zM91.484 200.82c-2.958-2.546-5.86-3.742-4.485-9.036 4.047-1.09 2.913-2.803-.598-3.475-1.17-9.792 9.134-6.603 4.76-2.25 6.38-2.988-1.944 1.99 3.89 4.134 3.427-3.904 8.377 5.477 4.274 3.457-2.516 3.37-5.028 6.582-7.23 1.1-8.512 2.904 5.232 2.004.942 6.222-1.085 1.686-.792 1.983-1.553-.15zm143.025-39.804c-3.298-1.07-7.168-2.316-9.7-5.957-2.1-1.085 9.767-2.325.837-3.214-7.006-1.913 3.31-2.822-.835-4.96-1.452-6.213 6.796-3.128 2.368-5.886-7.424 1.08.802-6.89 2.5-.488 8.328 4.202-3.62-.477 2.29 5.79-6.833 2.42 2.062 4.664 4.598 2.642 2.288-2.573 7.804 11.23 2.682 9.318-3.784-2.67-1.456 6.415-4.74 2.754zM114.82 145.68c-3.963-2.076-6.576-2.14-6.522-6.68-3.836-1.742 4.624-5.425.808-6.995-3.538-7.08 6.415-6.09 3.192-10.037-7.753-.044 8.255-1.48.488-3.718.02-5.788 4.055-2.57 6.372-4.752 5.506.423 2.678 5.97 4.19 6.583-5.96-.1-3.34 9.08-9.182 5.996-6.393 3.74 7.14 3.564 4.325 9.346-3.522 2.167 1.93 8.452 3.65 3.09 5.05-3.085 7.014 7.52 1.69 5.726-3.01-1.678-7.852-1.307-7.33 3.12l-1.68-1.68zM251 130c-.77-7.515-8.223-2.873-10.318-5.417-1.963-2.914 2.48-8.844-2.99-8.583-3.69-1.54-6.055-5.286-4.213-9.366.388-4.095.585-17.33 3.562-8 5.555 5.57.096-1.235 1.42-4.7 2.64-3.67-5.07-8.226 2.288-6.39 7.415 2.85 13.403 4.19 19.608 4.68 1.213 4.6-3.257.104 1.467 5.645 4.382-.086 2.59 3.3 6.13 5.197-1.603 2.367 3.97 6.214-.87 9.072-2.96 7.405-6.73-8.573-2.085-4.022-1.644-5.67-5.966-5.682-2.044-1.8-6.483 2.303 2.933 9.593.064 12.682-7.047 1.358-.38 6.842-3.273 10.033-.293 2.96-8.47 2.61-8.747.967zm-49-5.12c-7.99-1.8 4.58-2.548-2.1-3.724-4.835.835-15.133 5.05-14.09-1.718-5.21-5.02-8.116-1.49-10.713-1.935 5.07-4.04-1.643-7.437-4.043-10.517 1.294-4.49-2.17-5.828-5.847-7.062.183-5.716 6.574-2.518 4.316-8.124 4.498-1.276 3.544-11.32-1.402-5.795-3.503-3.022-4.312 4.826-9.04 2.352-3.726-.41-8.482.96-11.588-.514-5.325-9.227-1.328 8.246-7.825.256-5.75 1.03-7.473-3.31-7.822-9.712 2.117-4.31-4.894-8.627-3.956-9.388.924-3.29 3.92-5.11 1.414-9.037-2.33-5.158 4.38-7.768 4.597-10.47 2.824-.082 11.324-2.09 7.808 2.907-1.284 5.565-8.09-1.466-9.466 3.527-3.602 3.59 6.04 2.444 5.454.356 3.978.827 7.92 1.525 10.667-2.138.344-4.354 5.2-3.64 5.735 1.673.717 8.277.023 16.893 1.61 24.96.21 3.884 6.37 7.496 2.715 3.462-.238-7.162 3.177-.148 7.077-3.383-4.717-1.24-3.157-6.236-6.12-8.54-5.154-4.23 9.664-2.52 1.028-7.25-7.398 2.67-3.21-11.632-1.457-1.067 5.62.07 1.615-5.507-.243-7.67.28-4.382.122-8.49-2.707-10.672-.867-6.722 10.693-.327 6.75-.74-5.414 2.147 2.234 3.2 3.693 6.124 3.795 1.038 10.42 3.903 12.334 6.522-4.953 3.333 3.67 5.49 1.723 9.936 4.76-1.943 3.487 4.65 3.622 4.404-3.872 4.52 4.585 1.023 5.104 4.27 3.3-3.52 10.13 6.044 9.774-.498.642-3.874 4.98-4.09 2.627-7.76 5.1-2.015 9.126-2.715 5.95 1.895 2.917 2.377 4.5 7.6 8.25 8.19 5.558-.722 16.78 1.475 5.566 4.8 2.242 3.986-.397 3.51-.393 7.902.287 7.322 4.633-6.583 7.137.687l.448 12.61c-7.223.518 3.076 2.27-.265 4.056-3.555-3.09-8.455 3.68-10.115-1.343-4.08 3.1-7.154-2.628-10.787.415-6.015.208-.99 7.81-.213 3-.804-4.31 6.11-2.892 3.795 1.502 1.632 4.263-4.39 5.96-.8 9.707 3.034 3.868-6.04 7.1-8.2 3.542zm-64.543-7.95c-2.885-2.7-8.513 1.014-12.002-1.953-3.12-6.157 4.87 1.788 3.545-3.136 1.723-1.89 6.356-5.123 3.298-7.84-1.24 3.553-4.02 5.913-3.798-.988.39-3.492 6.935-1.903 9.748-3.394.592 4.997 11.352 2.36 5.507 7.382 5.46.97 6.924 5.715 6.11-.975 5.22-4.44 3.077-2.283 3.836 2.177 4.74 5.362-5.703-5.557-4.272 4.688-3.004 3.943-8.13 3.127-11.97 4.04zm-83.04-24.07c.47-7.52 7.378 1.777 8.553-4.36.8-3.673-3.08-9.344-5.932-4.68-7.29 5.462.15-5.648-4.037-4.18-5.12 3.173-4.042-5.034-1.408-6.002 3.71-.412 8.81-3.68 7.03-7.834 1.004-.565 2.96-5.083 6.535-5.61 6.262-.878 8.357 7.89 12.252 11.43.167 5.935-4.374.367-5.6 2.567-6.007 5.87 7 9.873 1.833 13.098-4.76-.09-6.25 3.184-8.143 4.712-2.172 2.42-7.682 3.7-12.497 4.222l1.413-3.36zM90.4 79.4c-3.8-3.353 3.713-1.365.898-5.398-.716.12-3.33-8.682-2.62-6.583 5.4 3.548 4.285.578 10.556 5.926 6.017 1.752-6.34 1.674-2.005 5.843-5.074-3.328-2.945 2.24-7.316 1.48l.252-.655.235-.612zM240.596 72.5c-7.08-1.16-8.653-6.86-11.833-10.653-2.173-4.05.55-7.122-5.762-3.847-1.15-4.69 1.307-7.508 2.88-4.19-2.746-4.66 1.843-4.793 2.12-8.178 2.033-1.403 12.515 6.44 10-1.716 9.43 4.015 2.972 2.27 1.2 3.182 2.59 2.766 8.08 2.87 10.188 7.337 6.808 6.046 3.813 5.307.69 7.953 4.378 3.772.964 9.87-3.857 11.362-1.65 2.615-3.973-.463-5.625-1.25z" fill="#666" filter="url(#l)"/></g><path d="M0 146C-.36 69.188 62.175 0 146 0c90 0 146.042 72.825 146.544 146 .516 75.22-61.815 142.9-138.728 144.656C56.65 292.876.336 216.79 0 146z" fill="url(#m)" enable-background="new"/><path d="M0 146C-1.41 69.2 62.175 0 146 0c87.825 0 146.042 77.175 146 146-.045 73.046-58.054 140.564-136.01 144.112C56.196 294.654 1.338 218.79 0 146z" opacity=".6" fill="url(#n)" enable-background="new"/></svg>